<svg id="Capa_1" data-name="Capa 1" xmlns="http://www.w3.org/2000/svg" xmlns:xlink="http://www.w3.org/1999/xlink" viewBox="0 0 1080 612.91"><defs><style>.cls-1{fill:url(#Degradado_sin_nombre_26);}</style><linearGradient id="Degradado_sin_nombre_26" x1="42.95" y1="419.47" x2="1033.05" y2="419.47" gradientTransform="translate(0 -113.73)" gradientUnits="userSpaceOnUse"><stop offset="0" stop-color="#00c3f4"/><stop offset="0.03" stop-color="#00bff4"/><stop offset="0.34" stop-color="#0091f5"/><stop offset="0.61" stop-color="#0070f6"/><stop offset="0.84" stop-color="#005cf6"/><stop offset="1" stop-color="#0055f6"/></linearGradient></defs><path class="cls-1" d="M1021.73,379.14c-49.71,3.52-99.34,8.78-149.1,10.61-61.42,2.25-122.94,1.44-184.41,2.55-14.83.26-29.67,2.44-44.4,4.51-8.78,1.23-17.35,3.95-26,6-2.43-12.49.77-16.83,11.94-19.18q15.87-3.35,31.72-6.79l-.07,0,2.14-.48q25.14-5.44,50.24-11.09a9.26,9.26,0,0,0,2.45-1c5.37-2.3,16.43-7.72-.87-6.82h0c-.6,0-1.19,0-1.79,0-28,1.59-55.93,3.07-83.87,5-12.42.84-23.9-.57-33.7-9.1-5.4-4.71-6.48-8.25,0-13.74,47.3-39.71,101.54-59.84,163.37-59.83,85.27,0,168.83,13.18,251.66,32.17,2.89.67,5.88.91,10,1.51-4.25-20.21-7.71-38.71-12.16-57-2.12-8.68-9.85-10.61-18-11.46-14.09-1.46-28.3-2.56-42.15-5.37-39.56-8-78.81-17.59-118.46-25.1-37-7-74.42-9.18-111.47.77-47,12.61-84.19,40.13-115.55,76.43q-10.43,12.08-20.83,24.18l-3-1.83c1.07-3.09,1.92-6.27,3.24-9.25,27.08-61.37,72.19-104.76,132.71-132.69C771,146.45,829.91,135.13,891,134c9.45-.18,19,.46,28.36-.37,8.79-.77,15.41-5.83,15.92-15.15s-4.54-15.86-14.1-18a44.82,44.82,0,0,0-8.64-1c-65-1.34-128.47,7.47-189.28,31.43-69.22,27.28-125.13,70.44-161.09,137-3.14,5.8-6.25,11.61-10.61,19.72-1.3-6.12-2.28-9.25-2.58-12.44-1.72-17.73-3-35.51-5-53.22-1.87-17-4.27-33.87-6.78-50.76-.29-1.92-2.72-3.52-4.16-5.27-1.56,1.67-3.59,3.12-4.53,5.09s-.71,4.27-.83,6.44c-2.36,43.23-5.59,86.44-6.55,129.7-.33,14.88-7.2,21.47-18.82,27.08-11.73-14.74-22.76-29.59-34.82-43.55-28.82-33.39-63.22-59.17-105.76-72.38C311,202.49,260,206.54,210.05,221.1c-41.69,12.17-83.05,24-126.92,24.38-14.36.11-18.91,5.45-20.71,20C60.6,280.25,58.8,295,56.75,309.76c-.77,5.58.19,9.92,6.7,9.71,22.15-.74,44.82.89,66.29-3.39,38.79-7.75,76.76-19.49,115.25-28.83,26.83-6.51,53.73-12.62,81.88-10.19,44.07,3.8,83,20.6,118.88,45.35,11.79,8.13,22.51,17.81,34.37,27.31-9.27,8.55-17.82,13-28.77,12.39-26.51-1.44-53-2.77-79.57-3.8-5.65-.22-11.37,1-17,1.62,0,1.12,0,2.24,0,3.37,2.94.86,5.85,1.9,8.84,2.57,29.08,6.43,58.08,13.31,87.33,18.9,9.9,1.89,9.58,7.72,8.22,14.1-1.76,8.23-8,3.59-12.38,2.89-19-3.07-37.76-7.65-56.82-9.33-18.42-1.61-37.1,0-55.65-.39-51.64-1.1-103.31-1.74-154.9-4.05-42.5-1.91-84.89-6-127.35-8.87-2.94-.2-6,2.06-9.06,3.17,2.57,1.77,4.94,4.62,7.74,5.14q32.16,5.93,64.47,11.05c77.16,12.36,154.35,24.47,231.49,36.94,25.09,4.05,49.89,10.83,75.11,12.91,31.55,2.61,57,13.22,73.78,41.07a33.62,33.62,0,0,0,5,5.76c18.87,19.4,42,22.84,63.86,7,11.22-8.13,20.64-19.28,29.21-30.35,8-10.42,16.9-17.3,30.27-18.84q32.39-3.75,64.6-8.92c18.63-3,37-7.47,55.64-10.55q127.44-21.09,254.94-41.78c11.29-1.86,22.52-4.07,33.77-6.11l.21-4.63C1029.27,380.33,1025.44,378.87,1021.73,379.14Z"/><path class="cls-1" d="M1021.73,379.14c-49.71,3.52-99.34,8.78-149.1,10.61-61.42,2.25-122.94,1.44-184.41,2.55-14.83.26-29.67,2.44-44.4,4.51-8.78,1.23-17.35,3.95-26,6-2.43-12.49.77-16.83,11.94-19.18q15.87-3.35,31.72-6.79l-.07,0,2.14-.48q25.14-5.44,50.24-11.09a9.26,9.26,0,0,0,2.45-1c5.37-2.3,16.43-7.72-.87-6.82h0c-.6,0-1.19,0-1.79,0-28,1.59-55.93,3.07-83.87,5-12.42.84-23.9-.57-33.7-9.1-5.4-4.71-6.48-8.25,0-13.74,47.3-39.71,101.54-59.84,163.37-59.83,85.27,0,168.83,13.18,251.66,32.17,2.89.67,5.88.91,10,1.51-4.25-20.21-7.71-38.71-12.16-57-2.12-8.68-9.85-10.61-18-11.46-14.09-1.46-28.3-2.56-42.15-5.37-39.56-8-78.81-17.59-118.46-25.1-37-7-74.42-9.18-111.47.77-47,12.61-84.19,40.13-115.55,76.43q-10.43,12.08-20.83,24.18l-3-1.83c1.07-3.09,1.92-6.27,3.24-9.25,27.08-61.37,72.19-104.76,132.71-132.69C771,146.45,829.91,135.13,891,134c9.45-.18,19,.46,28.36-.37,8.79-.77,15.41-5.83,15.92-15.15s-4.54-15.86-14.1-18a44.82,44.82,0,0,0-8.64-1c-65-1.34-128.47,7.47-189.28,31.43-69.22,27.28-125.13,70.44-161.09,137-3.14,5.8-6.25,11.61-10.61,19.72-1.3-6.12-2.28-9.25-2.58-12.44-1.72-17.73-3-35.51-5-53.22-1.87-17-4.27-33.87-6.78-50.76-.29-1.92-2.72-3.52-4.16-5.27-1.56,1.67-3.59,3.12-4.53,5.09s-.71,4.27-.83,6.44c-2.36,43.23-5.59,86.44-6.55,129.7-.33,14.88-7.2,21.47-18.82,27.08-11.73-14.74-22.76-29.59-34.82-43.55-28.82-33.39-63.22-59.17-105.76-72.38C311,202.49,260,206.54,210.05,221.1c-41.69,12.17-83.05,24-126.92,24.38-14.36.11-18.91,5.45-20.71,20C60.6,280.25,58.8,295,56.75,309.76c-.77,5.58.19,9.92,6.7,9.71,22.15-.74,44.82.89,66.29-3.39,38.79-7.75,76.76-19.49,115.25-28.83,26.83-6.51,53.73-12.62,81.88-10.19,44.07,3.8,83,20.6,118.88,45.35,11.79,8.13,22.51,17.81,34.37,27.31-9.27,8.55-17.82,13-28.77,12.39-26.51-1.44-53-2.77-79.57-3.8-5.65-.22-11.37,1-17,1.62,0,1.12,0,2.24,0,3.37,2.94.86,5.85,1.9,8.84,2.57,29.08,6.43,58.08,13.31,87.33,18.9,9.9,1.89,9.58,7.72,8.22,14.1-1.76,8.23-8,3.59-12.38,2.89-19-3.07-37.76-7.65-56.82-9.33-18.42-1.61-37.1,0-55.65-.39-51.64-1.1-103.31-1.74-154.9-4.05-42.5-1.91-84.89-6-127.35-8.87-2.94-.2-6,2.06-9.06,3.17,2.57,1.77,4.94,4.62,7.74,5.14q32.16,5.93,64.47,11.05c77.16,12.36,154.35,24.47,231.49,36.94,25.09,4.05,49.89,10.83,75.11,12.91,31.55,2.61,57,13.22,73.78,41.07a33.62,33.62,0,0,0,5,5.76c18.87,19.4,42,22.84,63.86,7,11.22-8.13,20.64-19.28,29.21-30.35,8-10.42,16.9-17.3,30.27-18.84q32.39-3.75,64.6-8.92c18.63-3,37-7.47,55.64-10.55q127.44-21.09,254.94-41.78c11.29-1.86,22.52-4.07,33.77-6.11l.21-4.63C1029.27,380.33,1025.44,378.87,1021.73,379.14Z"/><path class="cls-1" d="M663.89,330.79c-8.37,4.39-16.42,9.37-26.75,15.31,124.34-5.78,245.47-.68,366.78-5.27a66,66,0,0,0-6.56-2.25c-73.93-17-148.66-28.11-224.59-30.12C734.81,307.45,698,312.87,663.89,330.79Z"/><path class="cls-1" d="M663.89,330.79c-8.37,4.39-16.42,9.37-26.75,15.31,124.34-5.78,245.47-.68,366.78-5.27a66,66,0,0,0-6.56-2.25c-73.93-17-148.66-28.11-224.59-30.12C734.81,307.45,698,312.87,663.89,330.79Z"/><path class="cls-1" d="M290.34,343.46c43.55.19,87.1.69,130.8,1.06-.64-.7-1.79-2.62-3.49-3.72C375,313.23,329.31,298,278,309.77c-29,6.69-57.73,14.75-86.56,22.27-10.3,2.69-20.54,5.61-30.81,8.42l.42,3C204.17,343.42,247.25,343.28,290.34,343.46Z"/><path class="cls-1" d="M290.34,343.46c43.55.19,87.1.69,130.8,1.06-.64-.7-1.79-2.62-3.49-3.72C375,313.23,329.31,298,278,309.77c-29,6.69-57.73,14.75-86.56,22.27-10.3,2.69-20.54,5.61-30.81,8.42l.42,3C204.17,343.42,247.25,343.28,290.34,343.46Z"/></svg>